<svg width="88" height="88" viewBox="0 0 88 88" fill="none" xmlns="http://www.w3.org/2000/svg">
<path d="M5 44.5816C5 34.3003 12.0416 25.5906 21.6157 24.0845C29.0896 22.9057 35.1429 25.6561 40.0226 31.6153C40.3933 32.0738 40.3933 32.3357 40.0226 32.7941C36.6872 37.0507 33.3517 41.3073 30.0162 45.4984C28.0396 47.9869 24.7659 48.7727 22.1098 47.3975C20.6274 46.6771 19.7626 45.4984 19.392 43.7958C19.3303 43.4028 19.2067 43.0754 19.8244 43.2719C20.7509 43.5338 21.4304 43.0099 22.0481 42.3551C23.0981 41.2418 23.9629 39.9321 24.8894 38.7533C26.1865 37.1162 27.4837 35.4135 28.7808 33.8419C29.2132 33.318 29.0896 33.187 28.5337 32.9906C21.8628 30.4366 14.327 35.0206 13.1534 42.486C11.8563 50.2789 17.539 57.2859 25.0129 57.0894C27.7307 57.0239 30.1397 55.9107 32.3016 54.0771C34.7106 51.916 36.6254 49.3621 38.4167 46.6771C41.5668 42.0276 44.6553 37.3126 47.929 32.7286C51.6351 27.4897 56.453 24.4119 62.5681 23.8225C68.2508 23.2986 73.3158 25.1977 77.516 29.3233C82.0251 33.7764 84.187 39.3427 83.8164 45.7603C83.1987 56.4346 75.7865 63.638 67.5095 65.1442C63.4946 65.8645 59.665 65.3407 55.9589 63.5725C55.403 63.3106 55.0941 63.4416 54.7235 63.9C53.3646 65.7336 51.9439 67.5017 50.5233 69.2698C48.5467 71.8238 45.0876 72.4786 42.4316 70.8415C41.1962 70.1211 40.3933 68.9424 40.0844 67.5017C39.9609 67.1088 39.8991 66.7814 40.5786 66.9123C41.5668 67.1743 42.3081 66.5194 42.9258 65.7336C46.4465 61.215 49.9673 56.762 53.4881 52.2434C53.9205 51.7196 54.1676 51.5886 54.6617 52.1125C55.403 52.8328 56.1442 53.4877 56.9472 54.1425C60.715 57.4168 64.9153 57.8752 69.2391 55.7142C73.6246 53.4877 75.91 49.624 75.8483 44.4506C75.7865 39.2117 73.3775 35.3481 68.8685 33.318C64.4211 31.2879 60.2209 32.0737 56.5148 35.4135C54.2294 37.4436 52.6234 40.063 50.9556 42.617C48.5467 46.3497 46.323 50.2134 43.667 53.6841C41.7522 56.2381 39.652 58.7266 37.2431 60.7566C31.3133 65.6681 24.6423 66.9778 17.6007 64.0309C10.3738 61.0841 6.23537 55.3213 5.12354 47.201C5 46.3497 5 45.4984 5 44.5816Z" fill="url(#paint0_linear_618_15)"/>
<defs>
<linearGradient id="paint0_linear_618_15" x1="44.4286" y1="23.7373" x2="44.4286" y2="71.7373" gradientUnits="userSpaceOnUse">
<stop stop-color="#A98D69"/>
<stop offset="1" stop-color="#A98D69" stop-opacity="0.5"/>
</linearGradient>
</defs>
</svg>
