<svg width="88" height="88" viewBox="0 0 88 88" fill="none" xmlns="http://www.w3.org/2000/svg">
<path d="M33.9598 51.8996C33.9598 51.8478 33.9858 51.6665 33.9598 51.8996V51.8996Z" fill="url(#paint0_linear_618_20)"/>
<path d="M40.8413 72.3348C40.27 72.0499 40.0882 71.5319 39.5688 71.1175C39.0495 70.6772 38.2445 70.3146 37.5434 69.693C36.8163 69.0714 36.219 68.2167 35.5698 67.6728C34.9206 67.1548 34.2454 66.9735 33.5443 66.585C32.8172 66.2224 32.0901 65.6526 31.363 64.3057C30.6359 62.9848 29.9088 60.861 29.1298 59.1775C28.3767 57.494 27.5977 56.2767 26.7927 55.7069C26.0136 55.1371 25.2086 55.2148 24.5854 54.9817C23.9362 54.7486 23.4169 54.2824 22.9754 54.2565C19.9891 54.0752 19.1062 51.7442 18.9764 51.3815C18.8206 51.0189 18.457 50.8635 18.2752 50.475C18.0935 50.0865 18.0935 49.439 18.2233 48.7915C18.3531 48.144 18.6128 47.4965 18.6388 46.6677C18.6647 45.8389 18.4051 44.8288 18.0675 44.259C17.7299 43.6892 17.3144 43.5338 16.7691 43.1194C16.1978 42.705 15.4967 42.0834 14.7696 41.7467C14.0425 41.4359 13.3154 41.4359 13.0297 41.2028C12.7441 40.9697 12.8999 40.4517 12.848 39.8819C12.7701 39.3121 12.4584 38.6128 12.0949 37.8099C11.7313 37.0069 11.3418 36.1263 11.2899 35.168C11.238 34.2097 11.5755 33.1996 12.1468 32.4744C12.7181 31.7492 13.5491 31.2571 13.9646 30.7909C14.3801 30.3247 14.3801 29.8326 14.406 29.3146C14.432 28.7966 14.458 28.2786 14.6397 27.8642C14.8215 27.4498 15.1851 27.1649 14.9513 26.9577C14.7176 26.7764 13.8867 26.6469 13.2634 26.2325C12.6402 25.8181 12.2507 25.067 11.9391 24.7044C11.6275 24.3418 11.3678 24.3418 11.2639 24.0569C11.16 23.746 11.212 23.1244 11.0821 22.6323C10.9523 22.1402 10.6407 21.7776 10.5368 21.3632C10.4589 20.9488 10.5628 20.5085 10.5628 20.0682C10.5888 19.6538 10.4849 19.3171 10.3031 18.9804C10.1213 18.6437 9.86166 18.3329 9.86166 18.0221C9.86166 17.7113 10.1733 17.4005 10.0175 17.012C9.88762 16.6494 9.29036 16.1832 9.18649 15.7429C9.08262 15.3026 9.44617 14.8364 9.57601 14.0853C9.70585 13.3342 9.62795 12.2723 9.52407 11.3658C9.4202 10.4593 9.29036 9.73405 9.49811 9.39735C9.60198 9.24194 9.78375 9.16424 9.9915 9.11244C9.86166 8.69804 9.83569 8.36134 9.62795 8.07644C9.39424 7.73973 8.92681 7.50663 8.58923 7.73973C8.22568 7.97284 7.96601 8.72394 7.55052 9.06064C7.13504 9.39735 6.56374 9.31965 6.33003 9.65635C6.09632 9.99305 6.25213 10.7442 6.356 11.6248C6.45987 12.5313 6.53778 13.5932 6.40794 14.3443C6.2781 15.0954 5.91455 15.5616 6.01842 16.0019C6.12229 16.4422 6.69358 16.9084 6.84939 17.271C7.0052 17.6595 6.69358 17.9703 6.69358 18.2811C6.66761 18.5919 6.95326 18.9027 7.13504 19.2135C7.31681 19.5243 7.39471 19.9128 7.39471 20.3013C7.36875 20.7157 7.26487 21.156 7.36875 21.5963C7.44665 22.0107 7.78423 22.3733 7.91407 22.8654C8.04391 23.3575 7.99197 23.9792 8.09584 24.29C8.19972 24.6008 8.43343 24.6008 8.77101 24.9375C9.08262 25.3001 9.49811 26.0512 10.0954 26.4656C10.7186 26.88 11.5496 26.9836 11.7833 27.1908C12.017 27.3721 11.6794 27.6829 11.4717 28.0973C11.2899 28.5117 11.238 29.0297 11.238 29.5477C11.212 30.0657 11.212 30.5578 10.7965 31.024C10.381 31.4902 9.55004 31.9823 8.97875 32.7075C8.40746 33.4327 8.06988 34.4428 8.12181 35.4011C8.17375 36.3594 8.56327 37.2401 8.92681 38.043C9.29036 38.8459 9.60198 39.5193 9.67988 40.115C9.75778 40.6848 9.60198 41.2028 9.86166 41.4359C10.1473 41.669 10.8744 41.669 11.6015 41.9798C12.3286 42.2906 13.0297 42.9381 13.601 43.3525C14.1723 43.7669 14.5618 43.8964 14.8994 44.4921C15.237 45.0619 15.4707 46.072 15.4707 46.9008C15.4447 47.7296 15.211 48.3771 15.0552 49.0246C14.9254 49.6721 14.9254 50.3196 15.1072 50.7081C15.2889 51.0966 15.6525 51.252 15.8083 51.6147C15.9641 51.9773 15.8602 52.5471 16.1199 53.1169C16.3536 53.6867 16.873 54.2565 17.3664 54.7227C17.8597 55.1889 18.3012 55.5515 18.6907 55.3702C19.0802 55.2148 19.4178 54.5414 19.8333 54.4637C20.2488 54.4119 20.7681 54.9558 21.4433 55.1889C22.0925 55.422 22.8715 55.3443 23.6506 55.9141C24.4296 56.4839 25.2346 57.7271 25.9877 59.3847C26.7407 61.0423 27.4938 63.1661 28.2209 64.5129C28.948 65.8598 29.7011 66.4037 30.4022 66.7922C31.1033 67.1548 31.8045 67.3361 32.4277 67.88C33.0769 68.398 33.6741 69.2786 34.4012 69.9002C35.1283 70.5218 35.9333 70.8844 36.4267 71.3247C36.9461 71.765 37.1279 72.2571 37.6992 72.542C38.2705 72.8269 39.2053 72.9046 39.9843 73.1636C40.7374 73.3967 41.3087 73.7852 42.2695 73.6298C42.7369 73.578 43.2822 73.3708 43.8795 73.1377C43.6458 73.06 43.438 72.9823 43.1784 72.9046C42.3474 72.6974 41.4126 72.6197 40.8413 72.3348Z" fill="url(#paint1_linear_618_20)"/>
<path d="M10.9783 10.9514C11.4717 11.4694 12.1468 11.8579 12.822 12.091C13.5231 12.3241 14.1983 12.4277 14.8215 12.3241C15.237 12.2723 15.6005 12.091 16.042 11.832C16.016 11.832 16.016 11.8061 15.9901 11.8061C15.2889 11.573 14.6397 11.1845 14.1463 10.6665C13.653 10.1485 13.3413 9.50095 13.1855 8.98294C13.0297 8.46494 13.0038 8.07644 12.7441 7.76563C12.5104 7.42893 12.0689 7.19583 11.7054 7.42893C11.3418 7.66203 11.0821 8.41314 10.6667 8.74984C10.4329 8.93114 10.1733 8.98294 9.93956 9.06064C9.96553 9.11244 9.96553 9.19015 9.99149 9.24195C10.1733 9.78585 10.4849 10.4334 10.9783 10.9514Z" fill="url(#paint2_linear_618_20)"/>
<path d="M38.4263 24.6008C36.4787 24.6008 35.1024 24.2382 33.83 23.4353C32.5316 22.6323 31.3111 21.3632 30.2983 20.7675C29.2856 20.1459 28.4806 20.1459 27.8054 19.6538C27.1303 19.1617 26.6109 18.1516 26.2993 17.3746C25.9877 16.5717 25.9617 16.0278 25.8319 15.5098C25.702 14.9918 25.5203 14.5774 25.3125 14.3702C25.1048 14.1371 24.897 14.1371 24.6114 13.9817C24.3257 13.8263 23.9881 13.5155 23.9622 13.2306C23.9362 12.9457 24.2219 12.6608 24.4036 12.35C24.5854 12.0392 25.1307 11.3658 25.1048 10.4852L23.9362 10.4334C23.5727 10.5888 22.1444 9.55275 21.703 9.83765C21.6251 9.70815 21.5472 9.60455 21.4433 9.50095C21.0798 9.16425 20.5604 9.03475 19.7294 9.42325C18.8985 9.81175 17.7299 10.7183 16.847 11.314C16.5354 11.5212 16.3017 11.7025 16.042 11.832C16.7172 12.0651 17.3923 12.1687 17.9896 12.0651C18.6128 11.9615 19.1581 11.6507 20.0151 11.055C20.5085 10.7183 21.0798 10.278 21.651 9.88945C21.8069 10.1744 21.8848 10.5111 21.8588 10.7701C21.8848 11.1586 21.677 11.3917 21.5472 11.6766C21.4173 11.9874 21.3654 12.3241 21.1836 12.6349C21.0019 12.9457 20.7162 13.2047 20.7422 13.5155C20.7681 13.8004 21.1057 14.1112 21.3914 14.2666C21.677 14.422 21.8848 14.422 22.0925 14.6551C22.3002 14.8882 22.508 15.3026 22.6119 15.7947C22.7417 16.3127 22.7936 16.8825 23.0793 17.6595C23.3909 18.4624 23.9102 19.4466 24.5854 19.9387C25.2606 20.4308 26.0396 20.4049 27.0783 21.0524C28.0911 21.674 29.3116 22.9172 30.6099 23.7202C31.9083 24.5231 33.2587 24.9116 35.2062 24.8857C36.219 24.8857 37.3616 24.7821 38.4263 24.6267C38.4522 24.6008 38.4522 24.6008 38.4263 24.6008Z" fill="url(#paint3_linear_618_20)"/>
<path d="M80.9875 71.0916C80.7019 70.5477 80.0786 70.47 79.7411 69.8225C79.3775 69.175 79.2736 67.9577 79.1178 67.1289C78.962 66.3001 78.7543 65.9116 78.0532 65.4454C77.352 64.9792 76.2094 64.4352 74.9889 63.2179C73.7685 61.9747 72.522 60.0581 72.5739 58.4523C72.6259 56.8465 74.0022 55.5774 74.6773 54.4378C75.3785 53.2982 75.3525 52.2363 74.7033 51.5888C74.0281 50.9412 72.7038 50.6822 72.0806 49.8275C71.4573 48.9728 71.5872 47.5224 71.4573 46.2274C71.3275 44.9324 70.9899 43.8187 71.1457 42.964C71.3015 42.1093 71.9507 41.4877 71.8728 40.9956C71.7949 40.5035 70.9639 40.1409 70.6523 39.5193C70.3407 38.9236 70.5225 38.0948 70.8081 37.6544C71.1197 37.2141 71.5352 37.2141 71.8728 36.6961C72.2104 36.1781 72.4441 35.1939 72.7038 33.5363C72.9635 31.8787 73.2231 29.4959 73.2491 28.1232C73.301 26.7246 73.1712 26.3102 72.496 26.0512C71.8468 25.7922 70.7042 25.6886 69.6655 25.1706C68.6268 24.6526 67.6401 23.6942 67.0947 22.969C66.5494 22.2438 66.3936 21.7258 65.6665 21.4668C64.9394 21.2078 63.641 21.2078 62.2907 20.7157C60.9663 20.2236 59.59 19.2653 58.5773 18.7473C57.5386 18.2293 56.8374 18.1775 56.1103 18.2811C55.591 18.3329 55.0457 18.4624 54.4224 18.6437C54.7081 18.7214 55.0457 18.8509 55.3832 19.0322C56.422 19.5502 57.7723 20.5085 59.0966 21.0006C60.421 21.4927 61.7194 21.5186 62.4725 21.7517C63.1996 22.0107 63.3294 22.5287 63.9007 23.2539C64.446 23.9791 65.4068 24.9375 66.4715 25.4555C67.5102 25.9735 68.6788 26.0771 69.302 26.3361C69.9512 26.5951 70.107 27.0354 70.0551 28.4081C70.0031 29.8067 69.7434 32.1636 69.5097 33.8212C69.2501 35.5047 69.0163 36.4889 68.6788 36.981C68.3412 37.499 67.9257 37.5249 67.6141 37.9394C67.3025 38.3797 67.1207 39.2085 67.4583 39.8042C67.7699 40.3999 68.6009 40.7625 68.6788 41.2805C68.7567 41.7726 68.1075 42.3942 67.9517 43.2489C67.7959 44.1036 68.1334 45.2432 68.2633 46.5123C68.3931 47.8073 68.2633 49.2577 68.8865 50.1124C69.5097 50.9671 70.8341 51.2262 71.5093 51.8737C72.1844 52.5212 72.1844 53.5572 71.4833 54.7227C70.7822 55.8882 69.4318 57.1314 69.3799 58.7372C69.328 60.343 70.5744 62.2855 71.7949 63.5028C73.0154 64.746 74.1839 65.29 74.8591 65.7303C75.5602 66.1965 75.768 66.6109 75.9238 67.4138C76.0796 68.2426 76.1835 69.434 76.547 70.1074C76.9106 70.7549 77.5078 70.8326 77.7935 71.3765C78.0791 71.9204 78.0272 72.9823 77.6117 73.3967C77.1702 73.8111 76.3393 73.6298 75.6122 73.8111C74.8851 73.9665 74.2618 74.5104 73.6906 74.8471C73.1193 75.1838 72.6259 75.3392 72.1844 76.2457C71.743 77.1522 71.3534 78.8099 71.0159 79.7941C70.9639 79.9236 70.938 80.0272 70.886 80.1308C71.7949 80.3639 72.522 80.6488 73.0154 80.6747C73.6126 80.7265 73.8723 80.4934 74.2099 79.5351C74.5475 78.5768 74.937 76.9191 75.3785 75.9867C75.8199 75.0802 76.3133 74.9248 76.8846 74.5881C77.4559 74.2514 78.0791 73.7334 78.8062 73.5521C79.5333 73.3967 80.3643 73.578 80.8057 73.1377C81.2472 72.6974 81.2732 71.6614 80.9875 71.0916Z" fill="url(#paint4_linear_618_20)"/>
<path d="M66.5754 79.5351C65.5107 79.561 64.8355 79.7164 64.2383 79.6646C63.641 79.5869 63.1216 79.2502 62.5244 79.0689C61.9012 78.8876 61.2 78.8357 60.0834 78.6026C58.9668 78.3695 57.4087 77.9551 56.5258 77.2558C55.6689 76.5565 55.4871 75.6241 55.2534 74.614C55.0457 73.6039 54.786 72.5938 54.2407 71.9722C53.6953 71.3506 52.8384 71.1434 51.9035 71.1952C51.3323 71.2211 50.709 71.3765 50.0598 71.5837C49.6703 71.4542 49.2029 71.4283 48.7355 71.4542C47.8006 71.506 46.7879 71.8427 45.6193 72.3348C45.048 72.5938 44.3989 72.8787 43.8016 73.1118C44.269 73.2931 44.7364 73.4485 45.3856 73.3449C46.3205 73.2154 47.6189 72.542 48.7874 72.0499C49.2289 71.8686 49.6444 71.7132 50.0339 71.5837C50.4234 71.7132 50.761 71.9204 51.0206 72.2312C51.566 72.8528 52.345 73.8629 52.5527 74.873C52.7605 75.8831 52.9682 76.8414 53.8252 77.5149C54.6821 78.2142 55.7208 78.6286 56.8634 78.8617C57.98 79.0948 58.7071 79.1466 59.3044 79.3279C59.9276 79.5092 60.421 79.8459 61.0182 79.9236C61.6155 80.0013 62.2907 79.7941 63.3554 79.7941C64.42 79.7941 65.9002 79.9495 67.1207 80.2344C68.3152 80.4934 69.25 80.8819 69.8473 80.9337C70.3667 80.9855 70.6263 80.8042 70.912 80.1049C70.7302 80.0531 70.5225 80.0013 70.3147 79.9495C69.1462 79.6905 67.64 79.5092 66.5754 79.5351Z" fill="url(#paint5_linear_618_20)"/>
<path d="M46.4243 22.192C46.8918 21.8553 47.6189 21.8553 48.294 21.4668C48.9692 21.0783 49.5924 20.3013 50.5013 19.8092C51.4102 19.2912 52.6307 19.084 53.6174 18.8509C53.9031 18.7732 54.1628 18.7214 54.4224 18.6696C53.8771 18.5142 53.4097 18.5142 52.9163 18.5919C52.1892 18.6696 51.4102 18.9286 50.4234 19.1358C49.4106 19.3689 48.2161 19.602 47.3072 20.0941C46.3984 20.6121 45.7752 21.3632 45.1 21.7517C44.4248 22.1402 43.6977 22.1661 43.2303 22.4769C42.7629 22.7877 42.5811 23.4612 41.1788 23.9792C40.5037 24.2382 39.5429 24.4454 38.5042 24.6008C40.4517 24.5749 42.9966 24.2123 44.3729 23.6943C45.7751 23.1762 45.9829 22.5287 46.4243 22.192Z" fill="url(#paint6_linear_618_20)"/>
<path d="M47.8006 20.0941C47.7227 19.8351 46.4763 15.4839 47.4111 11.5989C47.5929 10.8737 47.5669 10.5629 46.9956 9.99305C45.9829 8.95704 46.2166 3 42.2955 3H28.948C28.4027 3 27.8054 3.72521 27.6236 4.24321H39.8025C43.7237 4.24321 43.49 10.2003 44.5287 11.2104C45.1 11.7802 45.1259 12.091 44.9442 12.8162C43.9834 16.7012 45.2558 21.0524 45.3337 21.3114C45.3856 21.4927 45.4116 21.674 45.4376 21.8294C45.7492 21.7517 46.0608 21.7258 46.3724 21.7776C47.5929 21.9848 48.1382 21.2855 47.8006 20.0941Z" fill="url(#paint7_linear_618_20)"/>
<path d="M25.1048 10.4852C25.1048 9.42325 25.4683 8.93114 25.9098 9.29375C26.2733 9.60455 26.3253 9.42325 26.533 9.13834C26.9485 8.54264 27.312 5.84902 27.4159 5.12382C27.4419 4.86481 27.4938 4.55401 27.6236 4.24321L26.7148 4.24321C25.8578 4.24321 25.702 5.40872 25.702 6.08212C25.702 8.20594 24.7412 7.89514 24.5335 9.13834C24.3777 10.0708 24.4815 10.8996 24.2998 11.1586C24.092 11.4435 24.0401 11.6248 23.6765 11.314C23.261 10.9514 23.1052 11.0809 23.0533 11.6766C22.9754 12.5054 23.0014 13.5673 23.1572 14.681" fill="url(#paint8_linear_618_20)"/>
<path d="M27.6496 77.9033C27.4938 77.9033 27.312 78.0069 27.1822 78.1364C26.9225 78.3954 26.7407 78.7321 26.6369 79.1206C26.507 79.6904 26.2733 80.3121 26.1954 80.8301C26.9225 81.0891 27.5977 80.6747 27.7794 79.5092C27.8314 79.0947 27.9872 78.6285 28.117 78.1623C27.9612 78.0069 27.7794 77.9033 27.6496 77.9033Z" fill="url(#paint9_linear_618_20)"/>
<path d="M73.0154 80.6488C75.3006 81.0891 80.9096 81.115 80.9096 83.4201H81.2991C82.2859 83.4201 82.4157 81.8143 80.4682 80.9337C78.4427 80.0013 74.2878 80.0272 73.6905 79.7682" fill="url(#paint10_linear_618_20)"/>
<path d="M47.8006 79.6387C46.9956 80.6747 46.6581 82.151 45.7232 83.2647C47.2813 82.5913 48.6835 79.9236 49.904 78.3177C49.9819 78.2141 50.0598 78.1105 50.1377 78.0328C49.8781 77.9551 48.8393 78.2659 47.8006 79.6387Z" fill="url(#paint11_linear_618_20)"/>
<path d="M16.7951 55.1889C16.5614 55.2407 16.3277 55.2407 16.042 55.1889C15.6525 55.1371 15.289 54.904 15.0033 55.3443C14.7437 55.7328 14.8216 56.1731 15.0293 56.5098C15.9382 56.4321 16.4575 55.7587 16.7951 55.1889Z" fill="url(#paint12_linear_618_20)"/>
<path d="M18.509 55.4479L17.3924 54.2824C17.2366 54.3342 17.0548 54.7227 16.7951 55.163C17.2625 55.0853 18.2493 55.7587 18.509 55.4479Z" fill="url(#paint13_linear_618_20)"/>
<path d="M25.3125 80.1567C24.2998 78.9135 23.1831 76.4529 23.9881 76.1421C24.6114 75.8831 24.8191 75.3133 24.3517 74.8989C23.9362 74.5363 21.3914 72.7492 20.2488 69.5117C20.093 69.0973 19.9891 68.9678 19.6775 68.8124C19.262 68.6311 18.7167 68.6311 18.5868 67.9836C18.2233 66.3001 17.1846 64.9274 16.6912 63.2956C16.3536 62.156 15.6265 61.2236 15.3668 60.0581C15.237 59.4624 15.5226 57.235 15.0812 56.6134C15.0552 56.5875 15.0552 56.5616 15.0293 56.5357C14.8475 56.5616 14.6657 56.5616 14.458 56.5098C14.0684 56.458 13.4452 56.4839 13.1596 56.9242C12.8739 57.3386 13.0038 57.8048 13.2375 58.1933C13.6789 58.8408 13.3933 61.0423 13.5231 61.638C13.7828 62.8035 14.5099 63.7359 14.8475 64.8755C15.3149 66.5073 16.3796 67.88 16.7431 69.5635C16.873 70.211 17.4183 70.211 17.8338 70.3923C18.1454 70.5477 18.2493 70.6772 18.4051 71.0916C19.5477 74.3032 22.0925 76.0903 22.508 76.4788C23.0014 76.8932 22.7677 77.463 22.1444 77.722C21.3394 78.0587 22.456 80.5193 23.4688 81.7366C24.4296 82.9021 25.9617 82.4877 26.2214 80.8301C25.8838 80.7265 25.5722 80.4934 25.3125 80.1567Z" fill="url(#paint14_linear_618_20)"/>
<path d="M55.2015 83.4201C53.3318 83.4201 51.1765 80.4416 51.9295 77.3076C51.9555 77.1781 52.0334 75.6759 50.1377 78.0328C50.3974 78.1105 50.3714 78.5508 50.3455 78.6285C49.5924 81.7884 51.4881 85 53.3577 85H79.4554C80.3902 85 81.0914 84.0158 80.9096 83.4201H55.2015Z" fill="url(#paint15_linear_618_20)"/>
<path d="M45.0221 83.4201H33.2846C31.5448 83.4201 31.1553 82.2805 30.584 80.8301C30.2983 80.1049 30.1425 79.4056 30.532 78.6286C30.7917 78.1105 29.8049 76.6083 29.2596 76.6083C29.1038 76.6083 28.922 76.7119 28.7922 76.8414C28.5325 77.1004 28.3507 77.4371 28.2469 77.8256C28.2209 77.9551 28.1949 78.0846 28.143 78.1882C28.6364 78.6544 28.8441 79.82 28.6624 80.2085C28.2728 80.9855 28.4286 81.7107 28.7143 82.41C29.3116 83.8604 29.6751 85 31.4149 85H43.1524C43.9574 85 44.9961 84.1194 45.7232 83.2647C45.4895 83.3683 45.2558 83.4201 45.0221 83.4201Z" fill="url(#paint16_linear_618_20)"/>
<path d="M38.1925 31.5938C36.7903 33.7694 37.6992 35.8414 39.8545 37.2918C40.1142 37.4731 40.3738 37.6286 40.6595 37.7581C42.6071 38.7682 44.3729 39.9855 45.853 41.5136C46.3464 40.7625 46.8139 39.9855 47.3072 39.2344C45.0221 36.9033 42.2695 36.0227 39.9843 33.5622C39.439 32.9924 39.0495 32.319 39.0495 31.5161C39.0495 30.8686 39.2053 30.6355 39.2053 30.506C39.2053 30.5319 38.608 30.9463 38.1925 31.5938Z" fill="url(#paint17_linear_618_20)"/>
<path d="M54.0329 26.88C52.4748 24.9893 49.6703 24.5749 47.8266 26.362C47.1774 27.0095 46.5542 27.8901 46.1387 28.8225C45.4895 28.3563 44.7884 27.9678 44.0093 27.7606H43.9834C42.0358 27.2685 39.9843 28.3563 39.3092 30.2211C39.2832 30.3247 39.2572 30.4024 39.2313 30.506C39.3611 30.4024 40.8932 29.4441 42.7369 30.0916C44.5027 30.6873 45.8011 31.9564 47.1514 33.3032C47.1774 33.3291 47.2034 33.3291 47.2553 33.3032C47.8526 33.2255 48.1382 32.1636 48.1901 31.801C48.32 30.6096 47.5669 30.0139 47.3592 29.1592C47.3072 28.952 47.3072 28.5635 47.7227 28.2786C49.3327 27.0872 51.5919 28.2268 52.7605 29.729C54.0848 31.4384 54.1368 33.8989 53.3577 35.8673C52.7345 37.4731 51.54 38.9495 50.2935 40.2186C49.6703 40.8402 48.9692 41.4359 48.2681 41.9798C47.8006 42.3424 47.3072 42.6791 46.7879 42.9899C46.0868 43.4302 45.3597 43.8187 44.6326 44.1813C44.5806 44.2072 44.5287 44.2331 44.4767 44.2849C44.295 45.0619 44.1392 45.8389 43.9574 46.59C44.9701 46.072 45.931 45.4763 46.8398 44.8029C47.3332 44.4403 47.8006 44.0777 48.2421 43.6892C51.0466 41.2805 53.2539 38.1984 54.5782 34.7795C55.4871 32.2413 55.8766 29.1074 54.0329 26.88Z" fill="url(#paint18_linear_618_20)"/>
<path d="M39.3611 50.2937C39.1014 50.1383 38.5042 51.252 38.4263 51.4074C38.3484 51.5629 37.7511 52.6507 38.0108 52.8061C38.66 53.1687 39.2832 53.5572 39.9324 53.9198C40.1921 54.0752 40.7893 52.9615 40.8672 52.8061C40.9451 52.6507 41.5684 51.5629 41.2827 51.4074C40.6335 51.0448 39.9843 50.6822 39.3611 50.2937Z" fill="url(#paint19_linear_618_20)"/>
<path d="M50.2156 53.9457C50.0598 54.3601 49.8261 54.8522 49.6963 55.1112C49.125 56.1213 48.32 57.0019 47.3852 57.7271C46.8918 58.1156 46.5801 58.8408 46.3724 59.4106C46.2945 59.5919 46.0348 60.4207 46.5022 60.0581C49.151 57.9602 50.8648 54.7227 51.8256 51.5629C52.8903 48.1181 52.8903 44.4662 52.8903 40.892C52.8903 40.5294 52.1113 41.5654 52.0853 41.5913C51.7997 42.0575 51.4361 42.6791 51.4361 43.2489C51.4361 46.2792 51.4621 49.3613 50.709 52.2881C50.6052 52.8579 50.4234 53.4277 50.2156 53.9457Z" fill="url(#paint20_linear_618_20)"/>
<path d="M47.8785 39.8301C47.4111 40.5812 46.9437 41.3064 46.4763 42.0575L46.4503 42.0834C46.4503 42.2129 46.4763 42.3165 46.4763 42.446C46.9956 42.1352 47.489 41.7985 47.9564 41.4359C47.9305 40.892 47.9045 40.374 47.8785 39.8301Z" fill="url(#paint21_linear_618_20)"/>
<path d="M60.3691 61.6898C57.9021 62.2078 55.4352 62.7258 52.9682 63.2438C52.8124 63.2697 52.5787 63.6323 52.5008 63.7359C52.2931 64.0208 52.1113 64.3575 51.9555 64.6943C51.8776 64.8238 51.4621 65.808 51.7997 65.7562C54.2666 65.2382 56.7336 64.7202 59.2005 64.2021C59.3563 64.1763 59.59 63.8136 59.6679 63.71C59.8757 63.4251 60.0574 63.0884 60.2133 62.7517C60.2912 62.6222 60.7326 61.6121 60.3691 61.6898Z" fill="url(#paint22_linear_618_20)"/>
<path d="M46.71 45.7094C46.736 48.2735 46.4503 50.0606 45.6713 52.4953C45.5674 52.8061 45.4635 53.091 45.3337 53.4018C45.2298 53.6867 45.074 54.0234 44.9442 54.2306C44.7884 54.5155 44.7105 54.6709 44.5806 54.8781C44.3729 55.1889 44.1651 55.4738 43.9314 55.7587C42.9966 56.8983 41.7761 57.9343 40.3998 58.4782C38.0367 59.4106 35.0245 58.9962 33.3625 56.9242C32.5056 55.8364 32.168 54.386 32.2979 53.0133C32.3238 52.6766 32.3758 52.3658 32.4537 52.055C32.4796 51.8996 32.5316 51.7701 32.5575 51.6924C32.5835 51.6406 32.6095 51.5888 32.6095 51.5111C32.6354 51.4593 32.6614 51.3816 32.6354 51.4593C32.6354 51.4593 32.6354 51.4851 32.6095 51.4851C32.5835 51.5629 32.5835 51.537 32.6095 51.5111C32.5835 51.5629 32.5835 51.5629 32.5835 51.537C32.5835 51.537 32.6095 51.4852 32.6354 51.4593C32.6354 51.4593 32.6354 51.4593 32.6354 51.4334C32.6354 51.4334 32.6095 51.4593 32.5835 51.4851C32.5835 51.4851 32.5835 51.5111 32.5835 51.537V51.5111C32.4796 51.6406 32.2719 51.8996 32.0122 52.2881C30.9735 53.7126 30.558 55.5256 30.9475 57.235C31.0254 57.5458 31.1293 57.8566 31.2332 58.1674C32.4017 61.0164 35.6737 62.0265 38.4782 61.2495C42.1656 60.2394 44.7105 56.4062 46.1387 53.1428C47.4371 50.1901 48.0084 47.8073 48.1123 44.5957C47.6708 44.9842 47.1774 45.3468 46.71 45.7094Z" fill="url(#paint23_linear_618_20)"/>
<path d="M32.8172 51.1744C32.8951 51.0708 33.2067 50.7341 33.3885 50.5527C35.6737 48.3771 39.8285 47.1339 42.8927 46.7713C43.0745 45.9425 43.2563 45.1396 43.438 44.3108C41.049 44.6475 38.0627 45.6058 36.0112 46.9008C34.9466 47.7555 33.3625 49.3354 32.6095 51.4334C32.6614 51.3816 32.7912 51.2262 32.8172 51.1744Z" fill="url(#paint24_linear_618_20)"/>
<path d="M54.1108 52.7025C54.0329 52.9615 52.1113 59.9027 47.3852 62.5704C45.4376 63.6582 43.1784 63.9949 40.9711 64.2281C40.8153 64.2281 40.5556 64.6424 40.5037 64.7201C40.2959 65.0051 40.1142 65.3418 39.9584 65.6785C39.8805 65.8339 39.465 66.7663 39.8025 66.7404C43.5159 66.3778 47.2293 65.2123 49.8781 62.4668C51.4621 60.861 53.3318 58.3228 53.7732 56.2767C54.2666 54.0493 54.1108 52.7025 54.1108 52.7025Z" fill="url(#paint25_linear_618_20)"/>
<path d="M62.1868 44.4403C56.9413 44.4403 53.8252 48.9728 54.1108 52.6766C54.3445 51.0449 56.0065 47.2634 60.8105 46.9267C61.226 46.9008 61.5895 46.0979 61.7454 45.813C61.8233 45.7612 62.3946 44.4403 62.1868 44.4403Z" fill="url(#paint26_linear_618_20)"/>
<path d="M62.1349 55.5515C62.2647 55.422 62.3946 55.2666 62.5244 55.1112C63.4073 54.127 64.0825 52.9615 64.472 51.6924V51.6665C65.5367 48.2217 65.5367 44.5698 65.5367 40.9956C65.5367 40.633 64.7576 41.669 64.7317 41.6949C64.446 42.1611 64.0825 42.7827 64.0825 43.3525C64.0825 46.3828 64.1084 49.4649 63.3554 52.3917C63.1996 52.9615 63.0438 53.5054 62.836 54.0493C62.6802 54.4637 62.4465 54.9558 62.3167 55.2148C61.7454 56.2249 59.642 57.1055 58.7071 57.8307C58.2137 58.2192 58.006 58.5818 57.9541 58.9962C57.9281 59.2034 57.8762 59.9545 58.1618 59.6955C60.2912 58.1674 62.1349 55.5515 62.1349 55.5515Z" fill="url(#paint27_linear_618_20)"/>
<defs>
<linearGradient id="paint0_linear_618_20" x1="44" y1="3" x2="44" y2="85" gradientUnits="userSpaceOnUse">
<stop stop-color="#A98D69"/>
<stop offset="1" stop-color="#A98D69" stop-opacity="0.5"/>
</linearGradient>
<linearGradient id="paint1_linear_618_20" x1="44" y1="3" x2="44" y2="85" gradientUnits="userSpaceOnUse">
<stop stop-color="#A98D69"/>
<stop offset="1" stop-color="#A98D69" stop-opacity="0.5"/>
</linearGradient>
<linearGradient id="paint2_linear_618_20" x1="44" y1="3" x2="44" y2="85" gradientUnits="userSpaceOnUse">
<stop stop-color="#A98D69"/>
<stop offset="1" stop-color="#A98D69" stop-opacity="0.5"/>
</linearGradient>
<linearGradient id="paint3_linear_618_20" x1="44" y1="3" x2="44" y2="85" gradientUnits="userSpaceOnUse">
<stop stop-color="#A98D69"/>
<stop offset="1" stop-color="#A98D69" stop-opacity="0.5"/>
</linearGradient>
<linearGradient id="paint4_linear_618_20" x1="44" y1="3" x2="44" y2="85" gradientUnits="userSpaceOnUse">
<stop stop-color="#A98D69"/>
<stop offset="1" stop-color="#A98D69" stop-opacity="0.5"/>
</linearGradient>
<linearGradient id="paint5_linear_618_20" x1="44" y1="3" x2="44" y2="85" gradientUnits="userSpaceOnUse">
<stop stop-color="#A98D69"/>
<stop offset="1" stop-color="#A98D69" stop-opacity="0.5"/>
</linearGradient>
<linearGradient id="paint6_linear_618_20" x1="44" y1="3" x2="44" y2="85" gradientUnits="userSpaceOnUse">
<stop stop-color="#A98D69"/>
<stop offset="1" stop-color="#A98D69" stop-opacity="0.5"/>
</linearGradient>
<linearGradient id="paint7_linear_618_20" x1="44" y1="3" x2="44" y2="85" gradientUnits="userSpaceOnUse">
<stop stop-color="#A98D69"/>
<stop offset="1" stop-color="#A98D69" stop-opacity="0.5"/>
</linearGradient>
<linearGradient id="paint8_linear_618_20" x1="44" y1="3" x2="44" y2="85" gradientUnits="userSpaceOnUse">
<stop stop-color="#A98D69"/>
<stop offset="1" stop-color="#A98D69" stop-opacity="0.5"/>
</linearGradient>
<linearGradient id="paint9_linear_618_20" x1="44" y1="3" x2="44" y2="85" gradientUnits="userSpaceOnUse">
<stop stop-color="#A98D69"/>
<stop offset="1" stop-color="#A98D69" stop-opacity="0.5"/>
</linearGradient>
<linearGradient id="paint10_linear_618_20" x1="44" y1="3" x2="44" y2="85" gradientUnits="userSpaceOnUse">
<stop stop-color="#A98D69"/>
<stop offset="1" stop-color="#A98D69" stop-opacity="0.5"/>
</linearGradient>
<linearGradient id="paint11_linear_618_20" x1="44" y1="3" x2="44" y2="85" gradientUnits="userSpaceOnUse">
<stop stop-color="#A98D69"/>
<stop offset="1" stop-color="#A98D69" stop-opacity="0.5"/>
</linearGradient>
<linearGradient id="paint12_linear_618_20" x1="44" y1="3" x2="44" y2="85" gradientUnits="userSpaceOnUse">
<stop stop-color="#A98D69"/>
<stop offset="1" stop-color="#A98D69" stop-opacity="0.5"/>
</linearGradient>
<linearGradient id="paint13_linear_618_20" x1="44" y1="3" x2="44" y2="85" gradientUnits="userSpaceOnUse">
<stop stop-color="#A98D69"/>
<stop offset="1" stop-color="#A98D69" stop-opacity="0.5"/>
</linearGradient>
<linearGradient id="paint14_linear_618_20" x1="44" y1="3" x2="44" y2="85" gradientUnits="userSpaceOnUse">
<stop stop-color="#A98D69"/>
<stop offset="1" stop-color="#A98D69" stop-opacity="0.5"/>
</linearGradient>
<linearGradient id="paint15_linear_618_20" x1="44" y1="3" x2="44" y2="85" gradientUnits="userSpaceOnUse">
<stop stop-color="#A98D69"/>
<stop offset="1" stop-color="#A98D69" stop-opacity="0.5"/>
</linearGradient>
<linearGradient id="paint16_linear_618_20" x1="44" y1="3" x2="44" y2="85" gradientUnits="userSpaceOnUse">
<stop stop-color="#A98D69"/>
<stop offset="1" stop-color="#A98D69" stop-opacity="0.5"/>
</linearGradient>
<linearGradient id="paint17_linear_618_20" x1="44" y1="3" x2="44" y2="85" gradientUnits="userSpaceOnUse">
<stop stop-color="#A98D69"/>
<stop offset="1" stop-color="#A98D69" stop-opacity="0.5"/>
</linearGradient>
<linearGradient id="paint18_linear_618_20" x1="44" y1="3" x2="44" y2="85" gradientUnits="userSpaceOnUse">
<stop stop-color="#A98D69"/>
<stop offset="1" stop-color="#A98D69" stop-opacity="0.5"/>
</linearGradient>
<linearGradient id="paint19_linear_618_20" x1="44" y1="3" x2="44" y2="85" gradientUnits="userSpaceOnUse">
<stop stop-color="#A98D69"/>
<stop offset="1" stop-color="#A98D69" stop-opacity="0.5"/>
</linearGradient>
<linearGradient id="paint20_linear_618_20" x1="44" y1="3" x2="44" y2="85" gradientUnits="userSpaceOnUse">
<stop stop-color="#A98D69"/>
<stop offset="1" stop-color="#A98D69" stop-opacity="0.5"/>
</linearGradient>
<linearGradient id="paint21_linear_618_20" x1="44" y1="3" x2="44" y2="85" gradientUnits="userSpaceOnUse">
<stop stop-color="#A98D69"/>
<stop offset="1" stop-color="#A98D69" stop-opacity="0.5"/>
</linearGradient>
<linearGradient id="paint22_linear_618_20" x1="44" y1="3" x2="44" y2="85" gradientUnits="userSpaceOnUse">
<stop stop-color="#A98D69"/>
<stop offset="1" stop-color="#A98D69" stop-opacity="0.5"/>
</linearGradient>
<linearGradient id="paint23_linear_618_20" x1="44" y1="3" x2="44" y2="85" gradientUnits="userSpaceOnUse">
<stop stop-color="#A98D69"/>
<stop offset="1" stop-color="#A98D69" stop-opacity="0.5"/>
</linearGradient>
<linearGradient id="paint24_linear_618_20" x1="44" y1="3" x2="44" y2="85" gradientUnits="userSpaceOnUse">
<stop stop-color="#A98D69"/>
<stop offset="1" stop-color="#A98D69" stop-opacity="0.5"/>
</linearGradient>
<linearGradient id="paint25_linear_618_20" x1="44" y1="3" x2="44" y2="85" gradientUnits="userSpaceOnUse">
<stop stop-color="#A98D69"/>
<stop offset="1" stop-color="#A98D69" stop-opacity="0.5"/>
</linearGradient>
<linearGradient id="paint26_linear_618_20" x1="44" y1="3" x2="44" y2="85" gradientUnits="userSpaceOnUse">
<stop stop-color="#A98D69"/>
<stop offset="1" stop-color="#A98D69" stop-opacity="0.5"/>
</linearGradient>
<linearGradient id="paint27_linear_618_20" x1="44" y1="3" x2="44" y2="85" gradientUnits="userSpaceOnUse">
<stop stop-color="#A98D69"/>
<stop offset="1" stop-color="#A98D69" stop-opacity="0.5"/>
</linearGradient>
</defs>
</svg>
