<svg width="88" height="88" viewBox="0 0 88 88" fill="none" xmlns="http://www.w3.org/2000/svg">
<path d="M82.7928 44.9301C82.7928 49.2511 82.8904 53.6211 82.744 57.942C82.6953 59.2186 82.0611 60.7898 81.183 61.6736C74.4023 68.4496 67.4753 75.0292 60.597 81.756C59.5726 82.7872 58.792 83.3273 57.1335 82.7872C55.5724 82.2961 53.7675 82.5907 52.0601 82.5907C44.4989 82.5416 36.9377 82.5416 29.3765 82.3943C28.4008 82.3943 27.1325 81.9524 26.4495 81.265C20.2054 75.1274 14.1565 68.6951 7.76601 62.7048C4.79031 59.906 4.88787 56.7144 5.083 53.2774C5.27813 49.1038 5.6196 44.9792 5.71716 40.8548C5.81472 37.074 5.66838 33.3423 5.81473 29.5615C5.86351 28.5304 6.25376 27.3028 6.93671 26.6154C13.3759 20.2323 19.864 13.8491 26.4495 7.66236C27.4252 6.72943 29.0838 6.04202 30.4497 6.04202C37.6206 5.94382 44.7428 6.04202 51.9138 6.09112C54.4017 6.09112 56.8895 6.04202 59.3286 6.18932C60.0604 6.23842 60.9385 6.63123 61.4263 7.17135C68.0606 13.9964 74.695 20.8706 81.2806 27.6956C82.5977 29.0214 83.0855 30.5435 82.9879 32.4584C82.7928 36.632 82.9392 40.8056 82.9392 44.9792C82.8416 44.9301 82.7928 44.9301 82.7928 44.9301ZM41.8647 77.5824C42.4013 77.6806 43.0842 77.6315 43.4745 77.9261C47.9624 81.0686 52.7919 81.3141 57.6701 79.4483C62.5483 77.5824 66.3045 74.44 67.4753 68.8424C68.5972 68.4005 69.8656 67.9586 71.0851 67.4185C76.5975 64.767 79.6708 60.1515 80.6464 54.2594C81.183 51.0678 80.7928 47.8271 78.0122 45.4212C82.0611 38.3015 81.3781 32.9004 77.9634 27.5974C76.0609 24.6514 73.6706 22.049 69.768 21.5089C69.2314 21.4598 68.4997 20.4778 68.3533 19.7903C66.2557 12.1306 56.7432 6.53303 48.7917 9.5282C47.3771 10.0683 45.3282 10.9521 44.3526 10.412C39.328 7.46595 34.2547 7.46595 29.2301 9.82281C24.7422 11.8851 21.3762 15.0766 20.4981 20.3796C10.1563 23.2765 4.5464 33.4896 9.52217 43.7517C10.3027 42.1805 11.7661 40.6092 11.4247 39.7254C10.449 37.1231 10.9368 34.8644 11.571 32.4093C12.4491 29.0214 16.7907 24.7987 19.4737 24.3568C20.0591 26.5663 20.4981 28.7759 21.1811 30.8872C21.9128 33.2441 22.7909 35.5518 26.4983 35.7973C14.3028 38.2524 16.0102 38.4488 11.9613 42.0332C7.61967 45.9122 7.08306 51.0678 7.76601 56.4198C8.44896 61.5754 13.6686 67.5658 19.2298 67.8604C19.5713 68.646 19.9615 69.4316 20.303 70.2663C23.3275 77.5333 30.596 81.4614 38.0109 80.1848C39.328 79.9393 42.1574 80.5776 41.9135 77.5333L41.8647 77.5824Z" fill="url(#paint0_linear_618_32)"/>
<path d="M44.6939 74.5872C41.767 73.6543 40.9865 70.8555 39.9621 68.4495C39.2791 66.7801 39.1816 64.8652 38.8889 62.9993C38.5474 60.7407 37.4254 60.0532 35.3766 61.1335C32.9375 62.361 30.5959 63.834 28.108 65.0125C26.4007 65.7981 24.547 66.1909 22.5957 66.7801C21.3273 62.5083 23.3274 59.1694 25.8641 55.8305C26.8397 54.5539 29.0349 53.5228 28.0105 51.215L27.9617 51.2641C28.4983 51.7551 29.23 52.1971 29.5715 52.7863C33.718 60.0041 42.9378 62.9993 50.3527 59.6604L50.3039 59.6113C48.4989 63.9813 46.6452 68.3513 44.8891 72.7213C44.6452 73.3106 44.6939 73.998 44.5964 74.6363L44.6939 74.5872Z" fill="url(#paint1_linear_618_32)"/>
<path d="M43.6696 14.3892C44.6453 15.2239 46.1087 15.9113 46.499 16.9424C47.7673 20.1831 48.7429 23.5711 49.5722 26.9591C50.1576 29.4141 50.6942 29.7087 52.987 28.5794C56.8408 26.7136 60.8409 25.0932 64.7923 23.3256C66.9874 28.0884 62.4019 34.4715 58.9872 37.6631C54.548 29.7578 47.7185 27.5483 39.4256 29.3159C38.7426 28.1375 38.1085 27.1555 37.5231 26.1734C38.2548 25.4369 39.2305 24.7986 39.7183 23.8657C40.3037 22.7855 40.3037 21.3615 40.7915 20.2322C41.6208 18.219 42.694 16.3041 43.6696 14.3892Z" fill="url(#paint2_linear_618_32)"/>
<path d="M44.6452 74.6363C46.4989 75.2255 47.7672 74.3908 48.5965 72.8196C49.6697 70.7082 50.6942 68.5478 51.4747 66.3382C51.7186 65.6999 51.1332 64.767 50.8893 63.6377C55.3772 65.8963 59.1335 69.5298 65.1824 68.5478C63.3287 71.7393 61.3287 73.8998 58.792 75.4219C55.0846 77.6315 50.9869 77.6315 46.9867 76.3549C46.1574 76.1094 45.5233 75.1764 44.7915 74.5381C44.694 74.5872 44.6452 74.6363 44.6452 74.6363Z" fill="url(#paint3_linear_618_32)"/>
<path d="M41.9135 77.5333C40.4988 77.4842 38.9865 77.1896 37.6206 77.4351C32.4497 78.3189 25.4739 74.8818 23.3763 68.8915C28.0594 68.4986 32.3522 67.1729 35.7181 62.9993C35.9621 65.0616 36.0108 66.8292 36.4011 68.4986C37.084 71.4447 38.4012 74.1453 40.8403 76.1093C41.2793 76.5021 41.5232 77.1405 41.8647 77.6315C41.8647 77.5824 41.9135 77.5333 41.9135 77.5333Z" fill="url(#paint4_linear_618_32)"/>
<path d="M13.4247 46.0104C13.4247 49.0547 15.815 51.3624 19.7663 51.9516C21.2298 52.1971 22.6933 52.1971 24.4006 52.3444C23.6201 53.4738 22.9372 54.6031 22.0591 55.5851C19.8639 57.9911 18.937 60.6916 19.2297 63.9323C19.2785 64.4724 18.8395 65.0125 18.5955 65.5527C18.2053 65.258 17.7663 64.9634 17.376 64.6197C16.3516 63.6868 15.2296 62.803 14.3027 61.7719C10.205 57.3036 10.1075 51.0187 12.7417 46.5014C12.888 46.2559 13.2295 46.2068 13.5222 46.0595L13.4247 46.0104Z" fill="url(#paint5_linear_618_32)"/>
<path d="M37.084 25.5352C35.2303 24.2585 33.5229 22.6382 31.4741 21.7053C29.1326 20.6251 26.4983 20.134 23.9616 19.3975C26.8886 12.5234 36.9377 8.84077 42.7915 13.6527C41.0841 13.0635 39.9134 13.9473 38.9865 15.2239C36.7913 18.3664 35.0352 21.6071 37.084 25.5352Z" fill="url(#paint6_linear_618_32)"/>
<path d="M50.4015 59.6605C53.7187 58.0402 56.6456 55.9779 58.4018 52.6391C59.0847 51.3133 59.7677 51.7061 60.5482 52.6391C63.6214 56.3217 66.1093 60.2989 66.3532 65.4545C62.4507 66.6329 59.3286 65.0126 56.2554 63.0485C54.4016 61.821 52.3528 60.7899 50.4015 59.6605Z" fill="url(#paint7_linear_618_32)"/>
<path d="M75.6706 42.0823C72.1095 39.2836 68.5972 36.8776 63.3287 38.1051C67.1825 33.7351 70.1582 29.2669 69.1338 23.0802C70.2558 24.455 70.9875 25.5843 71.9632 26.419C76.2072 30.2489 78.5 35.8956 75.6706 42.0823Z" fill="url(#paint8_linear_618_32)"/>
<path d="M76.5975 46.9924C77.2805 52.6881 77.5732 57.6965 73.6706 61.6737C72.3047 63.0485 70.5485 64.0305 68.5972 64.9634C68.8899 60.3479 67.9631 56.4198 63.9629 52.8845C69.0363 52.0007 73.6218 51.4606 76.5975 46.9924Z" fill="url(#paint9_linear_618_32)"/>
<path d="M53.0357 26.7135C52.6455 21.6561 51.4747 16.9915 47.9624 13.0634C55.4261 11.394 62.0116 13.849 65.28 22.2944C62.7434 19.4466 60.4994 21.1651 58.4505 22.0489C56.2554 23.031 53.5723 23.6202 53.0357 26.7135Z" fill="url(#paint10_linear_618_32)"/>
<path d="M28.2056 39.2835C28.4008 36.9266 28.0105 34.9626 26.4495 32.8513C24.547 30.2489 23.5226 27.0573 21.9615 23.8166C25.3763 22.8837 27.9617 23.5711 30.4496 25.3388C32.6936 26.9591 34.9863 28.383 37.523 30.1016C33.0351 31.7219 30.6935 35.5518 28.1568 39.2344C28.1568 39.1853 28.2056 39.2835 28.2056 39.2835Z" fill="url(#paint11_linear_618_32)"/>
<path d="M60.3042 49.7912C60.3042 47.2379 60.1579 44.1445 60.4018 41.0511C60.4506 40.4619 62.158 39.2835 62.6946 39.4799C66.5483 40.7565 70.3533 42.3278 74.4998 43.9481C72.0119 47.1888 69.3777 48.76 65.963 49.0055C63.9141 49.2019 61.8165 49.5947 60.3042 49.7912Z" fill="url(#paint12_linear_618_32)"/>
<path d="M28.0594 51.215C26.3032 49.1037 23.6202 49.1528 21.3274 48.3672C18.742 47.4833 16.1077 46.7959 13.4735 46.0103L13.5222 46.0595C15.3271 42.3278 18.9859 41.3948 22.4494 40.3146C24.3031 39.7254 26.3032 39.5781 28.2545 39.2343L28.2057 39.1852C28.1081 43.2115 28.0594 47.2378 28.0594 51.215Z" fill="url(#paint13_linear_618_32)"/>
<defs>
<linearGradient id="paint0_linear_618_32" x1="44" y1="6" x2="44" y2="83" gradientUnits="userSpaceOnUse">
<stop stop-color="#A98D69"/>
<stop offset="1" stop-color="#A98D69" stop-opacity="0.5"/>
</linearGradient>
<linearGradient id="paint1_linear_618_32" x1="44" y1="6" x2="44" y2="83" gradientUnits="userSpaceOnUse">
<stop stop-color="#A98D69"/>
<stop offset="1" stop-color="#A98D69" stop-opacity="0.5"/>
</linearGradient>
<linearGradient id="paint2_linear_618_32" x1="44" y1="6" x2="44" y2="83" gradientUnits="userSpaceOnUse">
<stop stop-color="#A98D69"/>
<stop offset="1" stop-color="#A98D69" stop-opacity="0.5"/>
</linearGradient>
<linearGradient id="paint3_linear_618_32" x1="44" y1="6" x2="44" y2="83" gradientUnits="userSpaceOnUse">
<stop stop-color="#A98D69"/>
<stop offset="1" stop-color="#A98D69" stop-opacity="0.5"/>
</linearGradient>
<linearGradient id="paint4_linear_618_32" x1="44" y1="6" x2="44" y2="83" gradientUnits="userSpaceOnUse">
<stop stop-color="#A98D69"/>
<stop offset="1" stop-color="#A98D69" stop-opacity="0.5"/>
</linearGradient>
<linearGradient id="paint5_linear_618_32" x1="44" y1="6" x2="44" y2="83" gradientUnits="userSpaceOnUse">
<stop stop-color="#A98D69"/>
<stop offset="1" stop-color="#A98D69" stop-opacity="0.5"/>
</linearGradient>
<linearGradient id="paint6_linear_618_32" x1="44" y1="6" x2="44" y2="83" gradientUnits="userSpaceOnUse">
<stop stop-color="#A98D69"/>
<stop offset="1" stop-color="#A98D69" stop-opacity="0.5"/>
</linearGradient>
<linearGradient id="paint7_linear_618_32" x1="44" y1="6" x2="44" y2="83" gradientUnits="userSpaceOnUse">
<stop stop-color="#A98D69"/>
<stop offset="1" stop-color="#A98D69" stop-opacity="0.5"/>
</linearGradient>
<linearGradient id="paint8_linear_618_32" x1="44" y1="6" x2="44" y2="83" gradientUnits="userSpaceOnUse">
<stop stop-color="#A98D69"/>
<stop offset="1" stop-color="#A98D69" stop-opacity="0.5"/>
</linearGradient>
<linearGradient id="paint9_linear_618_32" x1="44" y1="6" x2="44" y2="83" gradientUnits="userSpaceOnUse">
<stop stop-color="#A98D69"/>
<stop offset="1" stop-color="#A98D69" stop-opacity="0.5"/>
</linearGradient>
<linearGradient id="paint10_linear_618_32" x1="44" y1="6" x2="44" y2="83" gradientUnits="userSpaceOnUse">
<stop stop-color="#A98D69"/>
<stop offset="1" stop-color="#A98D69" stop-opacity="0.5"/>
</linearGradient>
<linearGradient id="paint11_linear_618_32" x1="44" y1="6" x2="44" y2="83" gradientUnits="userSpaceOnUse">
<stop stop-color="#A98D69"/>
<stop offset="1" stop-color="#A98D69" stop-opacity="0.5"/>
</linearGradient>
<linearGradient id="paint12_linear_618_32" x1="44" y1="6" x2="44" y2="83" gradientUnits="userSpaceOnUse">
<stop stop-color="#A98D69"/>
<stop offset="1" stop-color="#A98D69" stop-opacity="0.5"/>
</linearGradient>
<linearGradient id="paint13_linear_618_32" x1="44" y1="6" x2="44" y2="83" gradientUnits="userSpaceOnUse">
<stop stop-color="#A98D69"/>
<stop offset="1" stop-color="#A98D69" stop-opacity="0.5"/>
</linearGradient>
</defs>
</svg>
