<svg width="89" height="88" viewBox="0 0 89 88" fill="none" xmlns="http://www.w3.org/2000/svg">
<path fill-rule="evenodd" clip-rule="evenodd" d="M39.1579 44.7373C39.1579 53.1088 32.3715 59.8952 24 59.8952C15.6285 59.8952 8.84211 53.1088 8.84211 44.7373C8.84211 36.3658 15.6285 29.5794 24 29.5794C32.3715 29.5794 39.1579 36.3658 39.1579 44.7373ZM44.1602 57.7644C39.8844 64.3678 32.4525 68.7373 24 68.7373C10.7452 68.7373 0 57.9921 0 44.7373C0 31.4825 10.7452 20.7373 24 20.7373C32.4525 20.7373 39.8844 25.1068 44.1602 31.7102C48.4359 25.1068 55.8679 20.7373 64.3203 20.7373C77.5751 20.7373 88.3203 31.4825 88.3203 44.7373C88.3203 57.9921 77.5751 68.7373 64.3203 68.7373C55.8679 68.7373 48.4359 64.3678 44.1602 57.7644ZM79.4782 44.7373C79.4782 53.1088 72.6918 59.8952 64.3203 59.8952C55.9488 59.8952 49.1624 53.1088 49.1624 44.7373C49.1624 36.3658 55.9488 29.5794 64.3203 29.5794C72.6918 29.5794 79.4782 36.3658 79.4782 44.7373Z" fill="url(#paint0_linear_618_53)"/>
<defs>
<linearGradient id="paint0_linear_618_53" x1="44.1602" y1="20.7373" x2="44.1602" y2="68.7373" gradientUnits="userSpaceOnUse">
<stop stop-color="#A98D69"/>
<stop offset="1" stop-color="#A98D69" stop-opacity="0.5"/>
</linearGradient>
</defs>
</svg>
