<svg width="182" height="120" viewBox="0 0 182 120" fill="none" xmlns="http://www.w3.org/2000/svg">
<path fill-rule="evenodd" clip-rule="evenodd" d="M79.065 14.1761C79.3431 16.5231 80.3188 18.5925 81.9652 20.3267C82.987 21.4033 83.6861 21.9503 84.6814 22.4522L85.3574 22.7934L84.4267 22.7932C83.4125 22.7928 82.4059 22.5962 81.5495 22.2311L81.0013 21.9974L80.4368 22.4411C78.5524 23.9227 76.8369 27.0846 76.1031 30.4285L75.8755 31.4661L83.3505 45.5281C87.4617 53.2622 90.8656 59.5778 90.9144 59.5629C90.9634 59.548 92.5915 56.7298 94.5325 53.3002L98.0616 47.0646L96.8868 45.8896C95.0462 44.0488 93.7092 42.021 92.8662 39.7916C90.8237 34.3905 92.7649 29.323 97.5041 27.6845C98.2743 27.4182 98.5747 27.3786 99.8421 27.3765C101.556 27.3736 102.303 27.5435 103.858 28.2892C105.022 28.8477 105.942 29.4836 107.011 30.4691L107.723 31.1253L107.795 30.6927C107.908 30.0177 107.882 28.3958 107.741 27.2514C107.052 21.658 103.382 18.2403 96.9336 17.1871C96.3257 17.0878 94.5456 16.9547 92.9779 16.8914C85.6899 16.5969 83.5603 16.1719 80.4397 14.3891C79.817 14.0333 79.2345 13.6838 79.1452 13.6124C79.0082 13.5028 78.9957 13.5909 79.065 14.1761ZM16.581 31.3342C16.6224 31.5916 16.8352 32.4205 17.054 33.1763C19.021 39.9736 24.1051 45.1022 30.7957 47.0381C32.7794 47.6121 34.3202 47.818 36.6678 47.8225C38.9927 47.827 40.2227 47.6771 42.3104 47.1346C48.355 45.5641 53.5851 41.3686 56.7824 35.5253C57.0436 35.048 57.258 34.622 57.2589 34.5787C57.2598 34.5354 56.5668 34.7336 55.719 35.0189C51.6097 36.4021 46.3407 37.4679 41.7287 37.8486C39.587 38.0253 34.2768 37.9239 32.4794 37.672C26.399 36.8195 21.5422 34.859 17.4247 31.5949L16.5059 30.8665L16.581 31.3342ZM58.9262 44.6062C52.5816 50.9397 45.0835 54.9628 37.5818 56.0585C35.9002 56.3042 33.1361 56.3999 31.7232 56.2614C31.0833 56.1986 30.5364 56.1695 30.5078 56.1967C30.4339 56.2667 30.8057 56.8884 31.344 57.595C33.4095 60.3063 38.996 62.0695 44.2592 61.6712C50.8599 61.1716 56.0151 57.9794 58.5958 52.7936C59.8607 50.252 60.5886 46.9324 60.4952 44.1315L60.46 43.0751L58.9262 44.6062ZM64.4738 53.1903C63.9095 54.5726 62.5368 57.0617 61.3884 58.7847C58.9016 62.5162 55.8325 65.6279 52.4219 67.8765C50.2433 69.3128 47.0925 70.6714 44.1916 71.4254L43.6295 71.5716L44.4243 72.1706C46.9018 74.0379 49.3086 74.8649 52.2741 74.8681C53.9569 74.8698 55.1871 74.6708 56.6572 74.1588C61.0302 72.636 64.5648 69.0145 65.9901 64.5965C66.9313 61.6789 66.9658 58.3697 66.088 55.1974C65.823 54.2399 65.0418 52.1876 64.9434 52.1907C64.9091 52.1919 64.6978 52.6417 64.4738 53.1903ZM71.3536 63.5413C70.5282 71.1883 66.8194 77.9004 61.3878 81.5779L60.1396 82.423L60.5325 82.5873C61.6851 83.0696 62.7745 83.2571 64.4156 83.2558C66.2903 83.2544 67.1188 83.0843 68.6178 82.3931C71.777 80.9366 74.0491 78.2076 75.0263 74.696C75.3198 73.6412 75.3483 73.3648 75.3483 71.5716C75.3483 69.781 75.3194 69.5005 75.0273 68.4472C74.4818 66.4794 73.3607 64.4484 71.7767 62.5577L71.4959 62.2228L71.3536 63.5413ZM79.8551 76.2415C75.7966 81.1847 73.4328 86.4477 72.5455 92.5166C72.2911 94.2558 72.2578 98.4791 72.4854 100.096C73.1415 104.756 74.5949 108.674 76.9229 112.06C80.1864 116.806 84.5569 119.535 89.5458 119.94C90.2285 119.995 90.3248 119.981 90.1417 119.857C90.0215 119.776 89.3147 119.314 88.5711 118.828C82.5318 114.887 79.2464 108.578 79.2503 100.929C79.2514 98.9194 79.3673 97.6449 79.7165 95.7987C80.5823 91.2232 82.7667 86.6505 85.4303 83.8377L85.8686 83.3749L84.1729 80.4819C83.2403 78.8908 82.1652 77.0032 81.7838 76.2871C81.4023 75.5712 81.0445 74.9853 80.9884 74.9853C80.9324 74.9853 80.4224 75.5506 79.8551 76.2415ZM90.3033 89.3901C87.0558 94.7377 86.4745 101.116 88.6476 107.56C89.1814 109.143 90.7022 112.369 90.9504 112.445C91.0191 112.466 91.3411 111.975 91.6658 111.353C93.771 107.32 94.8453 102.366 94.4925 98.3164C94.2683 95.7447 93.6715 93.443 92.6813 91.3307C92.1217 90.1371 91.1187 88.4086 90.9856 88.4086C90.9382 88.4086 90.6311 88.8503 90.3033 89.3901Z" fill="url(#paint0_linear_505_1414)"/>
<path fill-rule="evenodd" clip-rule="evenodd" d="M165.414 31.3344C165.373 31.5918 165.161 32.4207 164.942 33.1766C162.974 39.9739 157.89 45.1024 151.199 47.0383C149.216 47.6123 147.675 47.8182 145.327 47.8227C143.003 47.8272 141.773 47.6773 139.685 47.1349C133.641 45.5643 128.41 41.3688 125.213 35.5255C124.952 35.0482 124.737 34.6222 124.737 34.5789C124.736 34.5357 125.428 34.7338 126.276 35.0191C130.386 36.4023 135.655 37.4681 140.267 37.8488C142.408 38.0255 147.718 37.9241 149.516 37.6722C155.596 36.8197 160.453 34.8592 164.571 31.5951L165.49 30.8667L165.414 31.3344ZM123.069 44.6064C129.414 50.9399 136.912 54.963 144.414 56.0587C146.095 56.3044 148.86 56.4001 150.272 56.2616C150.912 56.1989 151.459 56.1697 151.488 56.1969C151.561 56.2669 151.19 56.8886 150.651 57.5952C148.586 60.3065 142.999 62.0697 137.736 61.6714C131.136 61.1718 125.981 57.9796 123.399 52.7938C122.134 50.2522 121.407 46.9326 121.5 44.1317L121.535 43.0753L123.069 44.6064ZM117.521 53.1905C118.086 54.5728 119.459 57.0619 120.607 58.7849C123.094 62.5164 126.163 65.6282 129.573 67.8767C131.753 69.313 134.903 70.6716 137.804 71.4257L138.366 71.5718L137.571 72.1708C135.094 74.0381 132.687 74.8652 129.721 74.8683C128.039 74.87 126.808 74.671 125.339 74.159C120.965 72.6362 117.431 69.0147 116.005 64.5968C115.064 61.6792 115.03 58.37 115.908 55.1977C116.172 54.2401 116.954 52.1878 117.053 52.1909C117.086 52.1921 117.298 52.6419 117.521 53.1905ZM110.642 63.5415C111.467 71.1886 115.176 77.9006 120.608 81.5781L121.856 82.4232L121.463 82.5875C120.31 83.0698 119.221 83.2573 117.58 83.256C115.705 83.2546 114.877 83.0845 113.378 82.3933C110.218 80.9368 107.946 78.2078 106.969 74.6962C106.676 73.6414 106.647 73.365 106.647 71.5718C106.647 69.7812 106.676 69.5007 106.968 68.4474C107.514 66.4796 108.635 64.4486 110.219 62.5579L110.5 62.223L110.642 63.5415ZM102.14 76.2417C106.199 81.1849 108.563 86.4479 109.45 92.5168C109.704 94.256 109.738 98.4794 109.51 100.096C108.854 104.756 107.401 108.675 105.073 112.06C101.809 116.806 97.4387 119.535 92.4497 119.94C91.767 119.995 91.6707 119.981 91.8538 119.858C91.974 119.777 92.6808 119.314 93.4245 118.828C99.4637 114.887 102.749 108.578 102.745 100.929C102.744 98.9197 102.628 97.6451 102.279 95.799C101.413 91.2235 99.2288 86.6507 96.5653 83.838L96.1269 83.3751L97.8226 80.4821C98.7552 78.891 99.8303 77.0034 100.212 76.2873C100.593 75.5714 100.951 74.9855 101.007 74.9855C101.063 74.9855 101.573 75.5508 102.14 76.2417Z" fill="url(#paint1_linear_505_1414)"/>
<path d="M0.193355 1.08605C0.0300097 1.98854 0.00464536 2.66306 0.0507173 4.8815C0.0999305 7.25211 0.142514 7.7269 0.401494 8.79452C2.80003 18.6833 11.7173 25.5376 25.1496 27.8172C29.2711 28.5167 32.1789 28.6967 39.4016 28.6994C47.0463 28.7023 50.0299 28.8913 53.352 29.583C56.0778 30.1507 58.6595 31.1809 60.5878 32.4701C62.4024 33.6835 64.3119 35.6872 65.4845 37.6084C66.3547 39.0342 70.8229 47.258 82.6174 69.1417C87.111 77.4792 90.8267 84.3417 90.8744 84.3915C90.9221 84.3417 94.8842 77.4792 99.3778 69.1417C111.172 47.258 115.64 39.0342 116.51 37.6084C117.683 35.6872 119.592 33.6835 121.407 32.4701C123.335 31.1809 125.918 30.1507 128.643 29.583C131.965 28.8913 134.948 28.7023 142.593 28.6994C149.816 28.6967 152.725 28.5167 156.845 27.8172C170.278 25.5376 179.195 18.6833 181.594 8.79452C181.852 7.7269 181.895 7.25211 181.944 4.8815C181.991 2.66306 181.965 1.98854 181.802 1.08605C181.674 0.382599 181.556 0.00385624 181.469 0.0311658C181.396 0.0547724 181.004 0.695157 180.599 1.4545C176.717 8.7289 172.27 13.3064 166.211 16.2656C161.955 18.3441 157.482 19.4637 151.203 20.0219C150.435 20.0902 146.902 20.1932 143.35 20.2508C137.247 20.3498 134.823 20.4512 132.122 20.7199C123.968 21.5314 118.904 23.6228 114.49 28.0009C111.767 30.7029 109.918 33.3171 106.975 38.6249C101.601 48.321 96.2353 58.3799 90.8984 68.0424C85.4153 57.6856 80.3944 48.321 75.0197 38.6249C72.0775 33.3171 70.2284 30.7029 67.5048 28.0009C63.092 23.6228 58.0272 21.5314 49.8725 20.7199C47.1719 20.4512 44.7479 20.3498 38.6454 20.2508C35.094 20.1932 31.5601 20.0902 30.7922 20.0219C24.5128 19.4637 20.0398 18.3441 15.7839 16.2656C9.72489 13.3064 5.27825 8.7289 1.39611 1.4545C0.99089 0.695157 0.599162 0.0547724 0.525634 0.0311658C0.440005 0.00385624 0.320634 0.382599 0.193355 1.08605Z" fill="url(#paint2_linear_505_1414)"/>
<defs>
<linearGradient id="paint0_linear_505_1414" x1="0.0196788" y1="-0.000242997" x2="192.568" y2="-0.000248118" gradientUnits="userSpaceOnUse">
<stop stop-color="#85693C"/>
<stop offset="1" stop-color="#E4D28B"/>
</linearGradient>
<linearGradient id="paint1_linear_505_1414" x1="0.0194855" y1="-3.09928e-05" x2="192.568" y2="-3.61133e-05" gradientUnits="userSpaceOnUse">
<stop stop-color="#85693C"/>
<stop offset="1" stop-color="#E4D28B"/>
</linearGradient>
<linearGradient id="paint2_linear_505_1414" x1="0.0194248" y1="-4.25582e-05" x2="192.567" y2="-4.76787e-05" gradientUnits="userSpaceOnUse">
<stop stop-color="#85693C"/>
<stop offset="1" stop-color="#E4D28B"/>
</linearGradient>
</defs>
</svg>
